<?xml version="1.0" encoding="iso-8859-1"?>
<!-- Uploaded to: SVG Repo, www.svgrepo.com, Generator: SVG Repo Mixer Tools -->
<svg height="800px" width="800px" version="1.1" id="Layer_1" xmlns="http://www.w3.org/2000/svg" xmlns:xlink="http://www.w3.org/1999/xlink" 
	 viewBox="0 0 501.2 501.2" xml:space="preserve">
<path style="fill:#FFC52F;" d="M305.8,383.2c4.4-24,20.8-48.4,41.6-63.2l-0.4,0.8c46.8-31.2,77.6-84,77.6-144.4
	C424.6,80.4,347,2.8,251,2.8S77.4,80.4,77.4,176.4c0,60,30.4,113.2,76.8,144l1.6,0.8c19.6,14.8,35.6,38,39.6,62L305.8,383.2
	L305.8,383.2z"/>
<g>
	<path style="fill:#F4EFEF;" d="M306.6,441.6c0,25.2-20.8,45.6-45.2,45.6h-21.6c-24.4,0-45.2-20.4-45.2-45.6v-62.4h112V441.6z"/>
	<path style="fill:#F4EFEF;" d="M270.6,487.2v3.6c0,4.4-4,8.4-8.4,8.4H239c-4.4,0-8.8-4-8.8-8.4v-3.6H270.6z"/>
</g>
<path d="M346.6,326c-1.2,0-2.4-0.8-3.2-1.6c-1.2-2-0.8-4.4,1.2-5.6c47.2-31.6,75.6-84.4,75.6-141.2C420.2,84,344.2,8,250.6,8
	S81,84,81,177.6c0,56.8,28,109.2,75.2,140.8c2,1.2,2.4,3.6,1.2,5.6s-3.6,2.4-5.6,1.2C102.6,292,73,236.8,73,177.6
	C73,79.6,152.6,0,250.6,0s177.6,79.6,177.6,177.6c0,59.6-29.6,114.8-79.2,148C348.2,326,347.4,326,346.6,326z"/>
<path d="M261.4,493.2h-21.6c-27.2,0-51.2-23.6-51.2-50.8v-61.2c0-2.4,1.6-4,4-4h112c2.4,0,4,1.6,4,4v61.2
	C308.6,470.4,287.4,493.2,261.4,493.2z M196.6,385.2v57.2c0,22.4,20.8,42.8,43.2,42.8h21.6c21.6,0,39.2-19.2,39.2-42.8v-57.2H196.6z
	"/>
<path d="M192.6,389.6c-2,0-3.6-1.2-4-3.2c-4-24.4-16.4-46-35.2-60l-1.6-1.2c-1.6-1.2-2-4-0.8-5.6s4-2,5.6-0.8l2,1.2
	c20.4,15.2,34,38.4,38.4,65.2c0.4,2-1.2,4.4-3.2,4.4C193,389.6,193,389.6,192.6,389.6z"/>
<path d="M304.6,389.6c-0.4,0-0.4,0-0.8,0c-2-0.4-3.6-2.4-3.2-4.4c4-25.2,20-49.2,44-66.4c2-1.2,4.4-0.8,5.6,0.8
	c1.2,1.6,0.8,4.4-0.8,5.6c-22.4,16-37.2,38.4-40.8,61.2C308.2,388,306.6,389.6,304.6,389.6z"/>
<path d="M264.6,501.2h-25.2c-6.8,0-11.2-4.4-11.2-10.8c0-2.4,1.6-4,4-4s4,1.6,4,4c0,0.8,0,2.8,3.2,2.8h25.2c2.8,0,2.8-0.8,2.8-2
	c0-2.4,1.6-4,4-4s4,1.6,4,4C275.4,497.2,271.4,501.2,264.6,501.2z"/>
<path d="M227.4,383.6c-1.6,0-3.6-1.2-4-3.2l-47.2-190.8c-0.4-2,0.8-4.4,2.8-4.8s4.4,0.8,4.8,2.8L231,378.4c0.4,2-0.8,4.4-2.8,4.8
	C227.8,383.6,227.8,383.6,227.4,383.6z"/>
<path d="M273.8,384c-0.4,0-0.8,0-0.8,0c-2-0.4-3.6-2.8-2.8-4.8L317.8,188c0.4-2,2.8-3.6,4.8-2.8c2,0.4,3.6,2.8,2.8,4.8l-47.6,191.2
	C277.4,382.8,275.8,384,273.8,384z"/>
<path d="M293.8,220.8c-7.6,0-11.2-5.2-14-9.6c-2.8-4-4.4-6-7.6-6c-3.2,0-4.8,2.4-7.6,6c-2.8,4.4-6.8,9.6-14,9.6
	c-7.6,0-11.2-5.2-14-9.6c-2.8-4-4.4-6-7.6-6c-3.2,0-4.8,2.4-7.6,6c-2.8,4.4-6.8,9.6-14,9.6c-7.6,0-11.2-5.2-14-9.6
	c-2.8-4-4.4-6-7.6-6c-2.4,0-4-1.6-4-4s1.6-4,4-4c7.6,0,11.2,5.2,14,9.6c2.8,4,4.4,6,7.6,6c3.2,0,4.8-2.4,7.6-6
	c2.8-4.4,6.8-9.6,14-9.6c7.6,0,11.2,5.2,14,9.6c2.8,4,4.4,6,7.6,6c3.2,0,4.8-2.4,7.6-6c2.8-4.4,6.8-9.6,14-9.6
	c7.6,0,11.2,5.2,14,9.6c2.8,4,4.4,6,7.6,6c3.2,0,4.8-2.4,7.6-6c2.8-4.4,6.8-9.6,14-9.6c2.4,0,4,1.6,4,4s-1.6,4-4,4
	c-3.2,0-4.8,2.4-7.6,6C305.4,215.6,301.4,220.8,293.8,220.8z"/>
<path d="M396.6,181.6c-2.4,0-4-1.6-4-4c0-47.2-23.6-91.6-62.8-118c-2-1.2-2.4-3.6-1.2-5.6s3.6-2.4,5.6-1.2
	c41.6,28,66.4,74.4,66.4,124.4C400.6,179.6,399,181.6,396.6,181.6z"/>
<path d="M305.4,46c-0.4,0-1.2,0-1.6-0.4C287,38.8,269,35.2,250.6,35.2c-2.4,0-4-1.6-4-4s1.6-4,4-4c19.6,0,38.4,3.6,56.4,10.8
	c2,0.8,3.2,3.2,2.4,5.2C308.2,44.8,307,46,305.4,46z"/>
<path d="M270.6,405.2h-76c-2.4,0-4-1.6-4-4s1.6-4,4-4h76c2.4,0,4,1.6,4,4S273,405.2,270.6,405.2z"/>
<path d="M270.6,425.2h-76c-2.4,0-4-1.6-4-4s1.6-4,4-4h76c2.4,0,4,1.6,4,4S273,425.2,270.6,425.2z"/>
<path d="M270.6,445.2h-76c-2.4,0-4-1.6-4-4s1.6-4,4-4h76c2.4,0,4,1.6,4,4S273,445.2,270.6,445.2z"/>
<path d="M302.6,405.2h-8c-2.4,0-4-1.6-4-4s1.6-4,4-4h8c2.4,0,4,1.6,4,4S305,405.2,302.6,405.2z"/>
<path d="M302.6,425.2h-8c-2.4,0-4-1.6-4-4s1.6-4,4-4h8c2.4,0,4,1.6,4,4S305,425.2,302.6,425.2z"/>
<path d="M302.6,445.2h-8c-2.4,0-4-1.6-4-4s1.6-4,4-4h8c2.4,0,4,1.6,4,4S305,445.2,302.6,445.2z"/>
<path d="M298.6,465.2h-100c-2.4,0-4-1.6-4-4s1.6-4,4-4h100c2.4,0,4,1.6,4,4S301,465.2,298.6,465.2z"/>
</svg>